<?xml version="1.0" ?>
<svg xmlns="http://www.w3.org/2000/svg" xmlns:xlink="http://www.w3.org/1999/xlink" width="512" height="512" viewBox="0.000000 0.000000 512.000000 512.000000">
	<path d="M 241.350305,210.912876 L 226.700611,165.825753 A 94.814815 94.814815 0 0 1 285.299389 165.825753 L 270.649695 210.912876 A 47.407407 47.407407 0 0 0 241.350305 210.912876" fill="#34deeb"/>
	<path d="M 221.817379,150.796711 L 216.934148,135.767670 A 126.419753 126.419753 0 0 1 295.065852 135.767670 L 290.182621 150.796711 A 110.617284 110.617284 0 0 0 221.817379 150.796711" fill="#34deeb"/>
	<path d="M 212.050916,120.738629 L 197.401222,75.651505 A 189.629630 189.629630 0 0 1 314.598778 75.651505 L 299.949084 120.738629 A 142.222222 142.222222 0 0 0 212.050916 120.738629" fill="#34deeb"/>
	<line x1="256.0" y1="224.39506172839506" x2="256.0" y2="3.1604938271604794" stroke="black" stroke-width="5" stroke-linecap="round"/>
	<path d="M 294.353398,228.134625 L 307.137864,218.846167 A 63.209877 63.209877 0 0 1 319.209877 256.000000 L 303.407407 256.000000 A 47.407407 47.407407 0 0 0 294.353398 228.134625" fill="#34deeb"/>
	<path d="M 319.922330,209.557708 L 332.706797,200.269250 A 94.814815 94.814815 0 0 1 350.814815 256.000000 L 335.012346 256.000000 A 79.012346 79.012346 0 0 0 319.922330 209.557708" fill="#34deeb"/>
	<path d="M 345.491263,190.980792 L 358.275729,181.692334 A 126.419753 126.419753 0 0 1 382.419753 256.000000 L 366.617284 256.000000 A 110.617284 110.617284 0 0 0 345.491263 190.980792" fill="#34deeb"/>
	<path d="M 371.060195,172.403875 L 409.413593,144.538500 A 189.629630 189.629630 0 0 1 445.629630 256.000000 L 398.222222 256.000000 A 142.222222 142.222222 0 0 0 371.060195 172.403875" fill="#34deeb"/>
	<path d="M 422.198059,135.250042 L 460.551457,107.384667 A 252.839506 252.839506 0 0 1 508.839506 256.000000 L 461.432099 256.000000 A 205.432099 205.432099 0 0 0 422.198059 135.250042" fill="#34deeb"/>
	<line x1="286.05808249031594" y1="246.2335369679029" x2="496.46465992252774" y2="177.86829574322314" stroke="black" stroke-width="5" stroke-linecap="round"/>
	<path d="M 294.353398,283.865375 L 307.137864,293.153833 A 63.209877 63.209877 0 0 1 275.532926 316.116165 L 270.649695 301.087124 A 47.407407 47.407407 0 0 0 294.353398 283.865375" fill="#34deeb"/>
	<path d="M 319.922330,302.442292 L 332.706797,311.730750 A 94.814815 94.814815 0 0 1 285.299389 346.174247 L 280.416158 331.145206 A 79.012346 79.012346 0 0 0 319.922330 302.442292" fill="#34deeb"/>
	<path d="M 345.491263,321.019208 L 383.844661,348.884583 A 158.024691 158.024691 0 0 1 304.832315 406.290412 L 290.182621 361.203289 A 110.617284 110.617284 0 0 0 345.491263 321.019208" fill="#34deeb"/>
	<path d="M 396.629127,358.173041 L 434.982525,386.038416 A 221.234568 221.234568 0 0 1 324.365241 466.406577 L 309.715547 421.319454 A 173.827160 173.827160 0 0 0 396.629127 358.173041" fill="#34deeb"/>
	<line x1="274.5769166156634" y1="281.56893216789956" x2="404.6153329253068" y2="460.5514573431966" stroke="black" stroke-width="5" stroke-linecap="round"/>
	<path d="M 241.350305,301.087124 L 236.467074,316.116165 A 63.209877 63.209877 0 0 1 204.862136 293.153833 L 217.646602 283.865375 A 47.407407 47.407407 0 0 0 241.350305 301.087124" fill="#34deeb"/>
	<path d="M 231.583842,331.145206 L 216.934148,376.232330 A 126.419753 126.419753 0 0 1 153.724271 330.307666 L 192.077670 302.442292 A 79.012346 79.012346 0 0 0 231.583842 331.145206" fill="#34deeb"/>
	<path d="M 212.050916,391.261371 L 207.167685,406.290412 A 158.024691 158.024691 0 0 1 128.155339 348.884583 L 140.939805 339.596125 A 142.222222 142.222222 0 0 0 212.050916 391.261371" fill="#34deeb"/>
	<path d="M 202.284453,421.319454 L 197.401222,436.348495 A 189.629630 189.629630 0 0 1 102.586407 367.461500 L 115.370873 358.173041 A 173.827160 173.827160 0 0 0 202.284453 421.319454" fill="#34deeb"/>
	<line x1="237.42308338433665" y1="281.56893216789956" x2="107.38466707469323" y2="460.5514573431966" stroke="black" stroke-width="5" stroke-linecap="round"/>
	<path d="M 208.592593,256.000000 L 192.790123,256.000000 A 63.209877 63.209877 0 0 1 204.862136 218.846167 L 217.646602 228.134625 A 47.407407 47.407407 0 0 0 208.592593 256.000000" fill="#34deeb"/>
	<path d="M 176.987654,256.000000 L 129.580247,256.000000 A 126.419753 126.419753 0 0 1 153.724271 181.692334 L 192.077670 209.557708 A 79.012346 79.012346 0 0 0 176.987654 256.000000" fill="#34deeb"/>
	<path d="M 113.777778,256.000000 L 97.975309,256.000000 A 158.024691 158.024691 0 0 1 128.155339 163.115417 L 140.939805 172.403875 A 142.222222 142.222222 0 0 0 113.777778 256.000000" fill="#34deeb"/>
	<path d="M 82.172840,256.000000 L 34.765432,256.000000 A 221.234568 221.234568 0 0 1 77.017475 125.961584 L 115.370873 153.826959 A 173.827160 173.827160 0 0 0 82.172840 256.000000" fill="#34deeb"/>
	<line x1="225.94191750968403" y1="246.2335369679029" x2="15.535340077472256" y2="177.8682957432232" stroke="black" stroke-width="5" stroke-linecap="round"/>
	<circle cx="256.0" cy="256.0" r="47.40740740740741" stroke="black" stroke-width="5" fill="none"/>
	<circle cx="256.0" cy="256.0" r="94.81481481481482" stroke="black" stroke-width="5" fill="none"/>
	<circle cx="256.0" cy="256.0" r="142.22222222222223" stroke="black" stroke-width="5" fill="none"/>
	<circle cx="256.0" cy="256.0" r="189.62962962962965" stroke="black" stroke-width="5" fill="none"/>
	<circle cx="256.0" cy="256.0" r="237.03703703703707" stroke="black" stroke-width="5" fill="none"/>
</svg>
