<?xml version="1.0" ?>
<svg xmlns="http://www.w3.org/2000/svg" xmlns:xlink="http://www.w3.org/1999/xlink" width="512" height="512" viewBox="-256.000000 -256.000000 512.000000 512.000000">
	<path d="M -14.383336,-44.267358 L -28.766673,-88.534716 A 93.090909 93.090909 0 0 1 28.766673 -88.534716 L 14.383336 -44.267358 A 46.545455 46.545455 0 0 0 -14.383336 -44.267358" fill="#34deeb"/>
	<path d="M -33.561118,-103.290502 L -38.355564,-118.046288 A 124.121212 124.121212 0 0 1 38.355564 -118.046288 L 33.561118 -103.290502 A 108.606061 108.606061 0 0 0 -33.561118 -103.290502" fill="#34deeb"/>
	<path d="M -43.150009,-132.802074 L -57.533346,-177.069431 A 186.181818 186.181818 0 0 1 57.533346 -177.069431 L 43.150009 -132.802074 A 139.636364 139.636364 0 0 0 -43.150009 -132.802074" fill="#34deeb"/>
	<line x1="0.0" y1="-31.03030303030303" x2="0.0" y2="-248.24242424242425" stroke="black" stroke-width="3"/>
	<path d="M 37.656064,-27.358732 L 50.208085,-36.478309 A 62.060606 62.060606 0 0 1 62.060606 -0.000000 L 46.545455 -0.000000 A 46.545455 46.545455 0 0 0 37.656064 -27.358732" fill="#34deeb"/>
	<path d="M 62.760106,-45.597886 L 75.312127,-54.717463 A 93.090909 93.090909 0 0 1 93.090909 -0.000000 L 77.575758 -0.000000 A 77.575758 77.575758 0 0 0 62.760106 -45.597886" fill="#34deeb"/>
	<path d="M 87.864149,-63.837041 L 100.416170,-72.956618 A 124.121212 124.121212 0 0 1 124.121212 -0.000000 L 108.606061 -0.000000 A 108.606061 108.606061 0 0 0 87.864149 -63.837041" fill="#34deeb"/>
	<path d="M 112.968191,-82.076195 L 150.624255,-109.434927 A 186.181818 186.181818 0 0 1 186.181818 -0.000000 L 139.636364 -0.000000 A 139.636364 139.636364 0 0 0 112.968191 -82.076195" fill="#34deeb"/>
	<path d="M 163.176276,-118.554504 L 200.832340,-145.913236 A 248.242424 248.242424 0 0 1 248.242424 -0.000000 L 201.696970 -0.000000 A 201.696970 201.696970 0 0 0 163.176276 -118.554504" fill="#34deeb"/>
	<line x1="29.511571899582947" y1="-9.588890976968067" x2="236.09257519666357" y2="-76.71112781574453" stroke="black" stroke-width="3"/>
	<path d="M 37.656064,27.358732 L 50.208085,36.478309 A 62.060606 62.060606 0 0 1 19.177782 59.023144 L 14.383336 44.267358 A 46.545455 46.545455 0 0 0 37.656064 27.358732" fill="#34deeb"/>
	<path d="M 62.760106,45.597886 L 75.312127,54.717463 A 93.090909 93.090909 0 0 1 28.766673 88.534716 L 23.972227 73.778930 A 77.575758 77.575758 0 0 0 62.760106 45.597886" fill="#34deeb"/>
	<path d="M 87.864149,63.837041 L 125.520212,91.195772 A 155.151515 155.151515 0 0 1 47.944455 147.557859 L 33.561118 103.290502 A 108.606061 108.606061 0 0 0 87.864149 63.837041" fill="#34deeb"/>
	<path d="M 138.072234,100.315350 L 175.728297,127.674081 A 217.212121 217.212121 0 0 1 67.122237 206.581003 L 52.738900 162.313645 A 170.666667 170.666667 0 0 0 138.072234 100.315350" fill="#34deeb"/>
	<line x1="18.239154495378564" y1="25.10404249211958" x2="145.9132359630285" y2="200.83233993695663" stroke="black" stroke-width="3"/>
	<path d="M -14.383336,44.267358 L -19.177782,59.023144 A 62.060606 62.060606 0 0 1 -50.208085 36.478309 L -37.656064 27.358732 A 46.545455 46.545455 0 0 0 -14.383336 44.267358" fill="#34deeb"/>
	<path d="M -23.972227,73.778930 L -38.355564,118.046288 A 124.121212 124.121212 0 0 1 -100.416170 72.956618 L -62.760106 45.597886 A 77.575758 77.575758 0 0 0 -23.972227 73.778930" fill="#34deeb"/>
	<path d="M -43.150009,132.802074 L -47.944455,147.557859 A 155.151515 155.151515 0 0 1 -125.520212 91.195772 L -112.968191 82.076195 A 139.636364 139.636364 0 0 0 -43.150009 132.802074" fill="#34deeb"/>
	<path d="M -52.738900,162.313645 L -57.533346,177.069431 A 186.181818 186.181818 0 0 1 -150.624255 109.434927 L -138.072234 100.315350 A 170.666667 170.666667 0 0 0 -52.738900 162.313645" fill="#34deeb"/>
	<line x1="-18.239154495378557" y1="25.104042492119586" x2="-145.91323596302846" y2="200.83233993695669" stroke="black" stroke-width="3"/>
	<path d="M -46.545455,0.000000 L -62.060606,0.000000 A 62.060606 62.060606 0 0 1 -50.208085 -36.478309 L -37.656064 -27.358732 A 46.545455 46.545455 0 0 0 -46.545455 0.000000" fill="#34deeb"/>
	<path d="M -77.575758,0.000000 L -124.121212,0.000000 A 124.121212 124.121212 0 0 1 -100.416170 -72.956618 L -62.760106 -45.597886 A 77.575758 77.575758 0 0 0 -77.575758 0.000000" fill="#34deeb"/>
	<path d="M -139.636364,0.000000 L -155.151515,0.000000 A 155.151515 155.151515 0 0 1 -125.520212 -91.195772 L -112.968191 -82.076195 A 139.636364 139.636364 0 0 0 -139.636364 0.000000" fill="#34deeb"/>
	<path d="M -170.666667,0.000000 L -217.212121,0.000000 A 217.212121 217.212121 0 0 1 -175.728297 -127.674081 L -138.072234 -100.315350 A 170.666667 170.666667 0 0 0 -170.666667 0.000000" fill="#34deeb"/>
	<line x1="-29.51157189958295" y1="-9.58889097696806" x2="-236.0925751966636" y2="-76.71112781574448" stroke="black" stroke-width="3"/>
	<circle cx="0" cy="0" r="31.03030303030303" fill="black"/>
	<circle cx="0" cy="0" r="77.57575757575758" stroke="black" stroke-width="3" fill="none"/>
	<circle cx="0" cy="0" r="155.15151515151516" stroke="black" stroke-width="3" fill="none"/>
	<circle cx="0" cy="0" r="232.72727272727275" stroke="black" stroke-width="3" fill="none"/>
</svg>
