<?xml version="1.0" ?>
<svg xmlns="http://www.w3.org/2000/svg" xmlns:xlink="http://www.w3.org/1999/xlink" width="512" height="512" viewBox="0.000000 0.000000 512.000000 512.000000">
	<circle cx="256.0" cy="256.0" r="256.0" fill="white"/>
	<path d="M 242.815275,215.421589 L 229.630550,174.843177 A 85.333333 85.333333 0 0 1 282.369450 174.843177 L 269.184725 215.421589 A 42.666667 42.666667 0 0 0 242.815275 215.421589" fill="#34deeb"/>
	<path d="M 225.235641,161.317040 L 220.840733,147.790903 A 113.777778 113.777778 0 0 1 291.159267 147.790903 L 286.764359 161.317040 A 99.555556 99.555556 0 0 0 225.235641 161.317040" fill="#34deeb"/>
	<path d="M 216.445825,134.264766 L 203.261100,93.686355 A 170.666667 170.666667 0 0 1 308.738900 93.686355 L 295.554175 134.264766 A 128.000000 128.000000 0 0 0 216.445825 134.264766" fill="#34deeb"/>
	<line x1="256.0" y1="227.55555555555554" x2="256.0" y2="28.444444444444457" stroke="black" stroke-width="5" stroke-linecap="round"/>
	<path d="M 290.518058,230.921163 L 302.024078,222.561550 A 56.888889 56.888889 0 0 1 312.888889 256.000000 L 298.666667 256.000000 A 42.666667 42.666667 0 0 0 290.518058 230.921163" fill="#34deeb"/>
	<path d="M 313.530097,214.201938 L 325.036117,205.842325 A 85.333333 85.333333 0 0 1 341.333333 256.000000 L 327.111111 256.000000 A 71.111111 71.111111 0 0 0 313.530097 214.201938" fill="#34deeb"/>
	<path d="M 336.542136,197.482713 L 348.048156,189.123100 A 113.777778 113.777778 0 0 1 369.777778 256.000000 L 355.555556 256.000000 A 99.555556 99.555556 0 0 0 336.542136 197.482713" fill="#34deeb"/>
	<path d="M 359.554175,180.763488 L 394.072234,155.684650 A 170.666667 170.666667 0 0 1 426.666667 256.000000 L 384.000000 256.000000 A 128.000000 128.000000 0 0 0 359.554175 180.763488" fill="#34deeb"/>
	<path d="M 405.578253,147.325038 L 440.096312,122.246200 A 227.555556 227.555556 0 0 1 483.555556 256.000000 L 440.888889 256.000000 A 184.888889 184.888889 0 0 0 405.578253 147.325038" fill="#34deeb"/>
	<line x1="283.05227424128435" y1="247.2101832711126" x2="472.4181939302749" y2="185.68146616890084" stroke="black" stroke-width="5" stroke-linecap="round"/>
	<path d="M 290.518058,281.078837 L 302.024078,289.438450 A 56.888889 56.888889 0 0 1 273.579633 310.104548 L 269.184725 296.578411 A 42.666667 42.666667 0 0 0 290.518058 281.078837" fill="#34deeb"/>
	<path d="M 313.530097,297.798062 L 325.036117,306.157675 A 85.333333 85.333333 0 0 1 282.369450 337.156823 L 277.974542 323.630686 A 71.111111 71.111111 0 0 0 313.530097 297.798062" fill="#34deeb"/>
	<path d="M 336.542136,314.517287 L 371.060195,339.596125 A 142.222222 142.222222 0 0 1 299.949084 391.261371 L 286.764359 350.682960 A 99.555556 99.555556 0 0 0 336.542136 314.517287" fill="#34deeb"/>
	<path d="M 382.566214,347.955737 L 417.084273,373.034575 A 199.111111 199.111111 0 0 1 317.528717 445.365920 L 304.343992 404.787508 A 156.444444 156.444444 0 0 0 382.566214 347.955737" fill="#34deeb"/>
	<line x1="272.719224954097" y1="279.0120389511096" x2="389.7537996327761" y2="440.09631160887693" stroke="black" stroke-width="5" stroke-linecap="round"/>
	<path d="M 242.815275,296.578411 L 238.420367,310.104548 A 56.888889 56.888889 0 0 1 209.975922 289.438450 L 221.481942 281.078837 A 42.666667 42.666667 0 0 0 242.815275 296.578411" fill="#34deeb"/>
	<path d="M 234.025458,323.630686 L 220.840733,364.209097 A 113.777778 113.777778 0 0 1 163.951844 322.876900 L 198.469903 297.798062 A 71.111111 71.111111 0 0 0 234.025458 323.630686" fill="#34deeb"/>
	<path d="M 216.445825,377.735234 L 212.050916,391.261371 A 142.222222 142.222222 0 0 1 140.939805 339.596125 L 152.445825 331.236512 A 128.000000 128.000000 0 0 0 216.445825 377.735234" fill="#34deeb"/>
	<path d="M 207.656008,404.787508 L 203.261100,418.313645 A 170.666667 170.666667 0 0 1 117.927766 356.315350 L 129.433786 347.955737 A 156.444444 156.444444 0 0 0 207.656008 404.787508" fill="#34deeb"/>
	<line x1="239.280775045903" y1="279.0120389511096" x2="122.24620036722393" y2="440.09631160887693" stroke="black" stroke-width="5" stroke-linecap="round"/>
	<path d="M 213.333333,256.000000 L 199.111111,256.000000 A 56.888889 56.888889 0 0 1 209.975922 222.561550 L 221.481942 230.921163 A 42.666667 42.666667 0 0 0 213.333333 256.000000" fill="#34deeb"/>
	<path d="M 184.888889,256.000000 L 142.222222,256.000000 A 113.777778 113.777778 0 0 1 163.951844 189.123100 L 198.469903 214.201938 A 71.111111 71.111111 0 0 0 184.888889 256.000000" fill="#34deeb"/>
	<path d="M 128.000000,256.000000 L 113.777778,256.000000 A 142.222222 142.222222 0 0 1 140.939805 172.403875 L 152.445825 180.763488 A 128.000000 128.000000 0 0 0 128.000000 256.000000" fill="#34deeb"/>
	<path d="M 99.555556,256.000000 L 56.888889,256.000000 A 199.111111 199.111111 0 0 1 94.915727 138.965425 L 129.433786 164.044263 A 156.444444 156.444444 0 0 0 99.555556 256.000000" fill="#34deeb"/>
	<line x1="228.94772575871562" y1="247.2101832711126" x2="39.58180606972505" y2="185.6814661689009" stroke="black" stroke-width="5" stroke-linecap="round"/>
	<circle cx="256.0" cy="256.0" r="42.666666666666664" stroke="black" stroke-width="5" fill="none"/>
	<circle cx="256.0" cy="256.0" r="99.55555555555554" stroke="black" stroke-width="5" fill="none"/>
	<circle cx="256.0" cy="256.0" r="156.44444444444443" stroke="black" stroke-width="5" fill="none"/>
	<circle cx="256.0" cy="256.0" r="213.33333333333331" stroke="black" stroke-width="5" fill="none"/>
</svg>
