<?xml version="1.0" ?>
<svg xmlns="http://www.w3.org/2000/svg" xmlns:xlink="http://www.w3.org/1999/xlink" width="512" height="512" viewBox="0.000000 0.000000 512.000000 512.000000">
	<circle cx="256.0" cy="256.0" r="256.0" fill="white"/>
	<path d="M 246.506998,226.783544 L 237.013996,197.567088 A 61.440000 61.440000 0 0 1 274.986004 197.567088 L 265.493002 226.783544 A 30.720000 30.720000 0 0 0 246.506998 226.783544" fill="#34deeb"/>
	<path d="M 233.849662,187.828269 L 230.685328,178.089450 A 81.920000 81.920000 0 0 1 281.314672 178.089450 L 278.150338 187.828269 A 71.680000 71.680000 0 0 0 233.849662 187.828269" fill="#34deeb"/>
	<path d="M 227.520994,168.350631 L 218.027992,139.134175 A 122.880000 122.880000 0 0 1 293.972008 139.134175 L 284.479006 168.350631 A 92.160000 92.160000 0 0 0 227.520994 168.350631" fill="#34deeb"/>
	<line x1="256.0" y1="235.52" x2="256.0" y2="92.16" stroke="black" stroke-width="5" stroke-linecap="round"/>
	<path d="M 280.853002,237.943237 L 289.137336,231.924316 A 40.960000 40.960000 0 0 1 296.960000 256.000000 L 286.720000 256.000000 A 30.720000 30.720000 0 0 0 280.853002 237.943237" fill="#34deeb"/>
	<path d="M 297.421670,225.905395 L 305.706004,219.886474 A 61.440000 61.440000 0 0 1 317.440000 256.000000 L 307.200000 256.000000 A 51.200000 51.200000 0 0 0 297.421670 225.905395" fill="#34deeb"/>
	<path d="M 313.990338,213.867553 L 322.274672,207.848632 A 81.920000 81.920000 0 0 1 337.920000 256.000000 L 327.680000 256.000000 A 71.680000 71.680000 0 0 0 313.990338 213.867553" fill="#34deeb"/>
	<path d="M 330.559006,201.829711 L 355.412008,183.772948 A 122.880000 122.880000 0 0 1 378.880000 256.000000 L 348.160000 256.000000 A 92.160000 92.160000 0 0 0 330.559006 201.829711" fill="#34deeb"/>
	<path d="M 363.696342,177.754027 L 388.549344,159.697264 A 163.840000 163.840000 0 0 1 419.840000 256.000000 L 389.120000 256.000000 A 133.120000 133.120000 0 0 0 363.696342 177.754027" fill="#34deeb"/>
	<line x1="275.47763745372475" y1="249.67133195520108" x2="411.82109962979797" y2="205.3706556416086" stroke="black" stroke-width="5" stroke-linecap="round"/>
	<path d="M 280.853002,274.056763 L 289.137336,280.075684 A 40.960000 40.960000 0 0 1 268.657336 294.955275 L 265.493002 285.216456 A 30.720000 30.720000 0 0 0 280.853002 274.056763" fill="#34deeb"/>
	<path d="M 297.421670,286.094605 L 305.706004,292.113526 A 61.440000 61.440000 0 0 1 274.986004 314.432912 L 271.821670 304.694094 A 51.200000 51.200000 0 0 0 297.421670 286.094605" fill="#34deeb"/>
	<path d="M 313.990338,298.132447 L 338.843340,316.189210 A 102.400000 102.400000 0 0 1 287.643340 353.388187 L 278.150338 324.171731 A 71.680000 71.680000 0 0 0 313.990338 298.132447" fill="#34deeb"/>
	<path d="M 347.127674,322.208131 L 371.980676,340.264894 A 143.360000 143.360000 0 0 1 300.300676 392.343462 L 290.807674 363.127006 A 112.640000 112.640000 0 0 0 347.127674 322.208131" fill="#34deeb"/>
	<line x1="268.0378419669498" y1="272.5686680447989" x2="352.30273573559884" y2="388.5493443583914" stroke="black" stroke-width="5" stroke-linecap="round"/>
	<path d="M 246.506998,285.216456 L 243.342664,294.955275 A 40.960000 40.960000 0 0 1 222.862664 280.075684 L 231.146998 274.056763 A 30.720000 30.720000 0 0 0 246.506998 285.216456" fill="#34deeb"/>
	<path d="M 240.178330,304.694094 L 230.685328,333.910550 A 81.920000 81.920000 0 0 1 189.725328 304.151368 L 214.578330 286.094605 A 51.200000 51.200000 0 0 0 240.178330 304.694094" fill="#34deeb"/>
	<path d="M 227.520994,343.649369 L 224.356660,353.388187 A 102.400000 102.400000 0 0 1 173.156660 316.189210 L 181.440994 310.170289 A 92.160000 92.160000 0 0 0 227.520994 343.649369" fill="#34deeb"/>
	<path d="M 221.192326,363.127006 L 218.027992,372.865825 A 122.880000 122.880000 0 0 1 156.587992 328.227052 L 164.872326 322.208131 A 112.640000 112.640000 0 0 0 221.192326 363.127006" fill="#34deeb"/>
	<line x1="243.96215803305014" y1="272.5686680447989" x2="159.6972642644012" y2="388.5493443583914" stroke="black" stroke-width="5" stroke-linecap="round"/>
	<path d="M 225.280000,256.000000 L 215.040000,256.000000 A 40.960000 40.960000 0 0 1 222.862664 231.924316 L 231.146998 237.943237 A 30.720000 30.720000 0 0 0 225.280000 256.000000" fill="#34deeb"/>
	<path d="M 204.800000,256.000000 L 174.080000,256.000000 A 81.920000 81.920000 0 0 1 189.725328 207.848632 L 214.578330 225.905395 A 51.200000 51.200000 0 0 0 204.800000 256.000000" fill="#34deeb"/>
	<path d="M 163.840000,256.000000 L 153.600000,256.000000 A 102.400000 102.400000 0 0 1 173.156660 195.810790 L 181.440994 201.829711 A 92.160000 92.160000 0 0 0 163.840000 256.000000" fill="#34deeb"/>
	<path d="M 143.360000,256.000000 L 112.640000,256.000000 A 143.360000 143.360000 0 0 1 140.019324 171.735106 L 164.872326 189.791869 A 112.640000 112.640000 0 0 0 143.360000 256.000000" fill="#34deeb"/>
	<line x1="236.52236254627525" y1="249.67133195520108" x2="100.17890037020203" y2="205.37065564160864" stroke="black" stroke-width="5" stroke-linecap="round"/>
	<circle cx="256.0" cy="256.0" r="30.72" stroke="black" stroke-width="5" fill="none"/>
	<circle cx="256.0" cy="256.0" r="71.68" stroke="black" stroke-width="5" fill="none"/>
	<circle cx="256.0" cy="256.0" r="112.64" stroke="black" stroke-width="5" fill="none"/>
	<circle cx="256.0" cy="256.0" r="153.6" stroke="black" stroke-width="5" fill="none"/>
</svg>
